<svg width="266" height="532" viewBox="0 0 266 532" fill="none" xmlns="http://www.w3.org/2000/svg">
<path opacity="0.1" d="M531.5 266C531.5 412.632 412.632 531.5 266 531.5C119.368 531.5 0.5 412.632 0.5 266C0.5 119.368 119.368 0.5 266 0.5C412.632 0.5 531.5 119.368 531.5 266ZM504.5 265.5C504.5 396.944 397.944 503.5 266.5 503.5C135.056 503.5 28.5 396.944 28.5 265.5C28.5 134.056 135.056 27.5 266.5 27.5C397.944 27.5 504.5 134.056 504.5 265.5ZM266.5 504.5C398.496 504.5 505.5 397.496 505.5 265.5C505.5 133.504 398.496 26.5 266.5 26.5C134.504 26.5 27.5 133.504 27.5 265.5C27.5 397.496 134.504 504.5 266.5 504.5ZM445.5 266C445.5 366.24 364.24 447.5 264 447.5C163.76 447.5 82.5 366.24 82.5 266C82.5 165.76 163.76 84.5 264 84.5C364.24 84.5 445.5 165.76 445.5 266ZM264 448.5C364.792 448.5 446.5 366.792 446.5 266C446.5 165.208 364.792 83.5 264 83.5C163.208 83.5 81.5 165.208 81.5 266C81.5 366.792 163.208 448.5 264 448.5Z" stroke="black"/>
</svg>
