<svg width="165" height="51" viewBox="0 0 165 51" fill="none" xmlns="http://www.w3.org/2000/svg">
<path d="M12.512 18.648C13.4933 18.648 14.384 18.504 15.184 18.216C15.9947 17.928 16.5973 17.6453 16.992 17.368L19.04 21.432C18.5387 21.8587 17.68 22.2907 16.464 22.728C15.2587 23.1653 13.824 23.384 12.16 23.384C10.6027 23.384 9.14133 23.112 7.776 22.568C6.41067 22.024 5.20533 21.2613 4.16 20.28C3.12533 19.288 2.30933 18.1307 1.712 16.808C1.12533 15.4747 0.832 14.0293 0.832 12.472C0.832 10.9147 1.12533 9.46933 1.712 8.136C2.29867 6.792 3.10933 5.624 4.144 4.632C5.18933 3.64 6.39467 2.872 7.76 2.328C9.136 1.77333 10.6027 1.496 12.16 1.496C13.824 1.496 15.2587 1.71467 16.464 2.152C17.68 2.58933 18.5387 3.02133 19.04 3.448L16.992 7.512C16.5973 7.224 15.9947 6.94133 15.184 6.664C14.384 6.376 13.4933 6.232 12.512 6.232C11.424 6.232 10.4747 6.40267 9.664 6.744C8.85333 7.07467 8.176 7.53333 7.632 8.12C7.088 8.70667 6.68267 9.368 6.416 10.104C6.14933 10.84 6.016 11.6133 6.016 12.424C6.016 13.2453 6.14933 14.0293 6.416 14.776C6.68267 15.512 7.088 16.1733 7.632 16.76C8.176 17.3467 8.85333 17.8107 9.664 18.152C10.4747 18.4827 11.424 18.648 12.512 18.648ZM28.657 23.384C27.217 23.384 25.937 23.0907 24.817 22.504C23.7077 21.9067 22.833 21.0907 22.193 20.056C21.5637 19.0107 21.249 17.816 21.249 16.472C21.249 15.128 21.5637 13.9333 22.193 12.888C22.833 11.832 23.7077 11 24.817 10.392C25.937 9.784 27.217 9.48 28.657 9.48C30.097 9.48 31.3663 9.784 32.465 10.392C33.5637 11 34.4223 11.832 35.041 12.888C35.6597 13.9333 35.969 15.128 35.969 16.472C35.969 17.816 35.6597 19.0107 35.041 20.056C34.4223 21.0907 33.5637 21.9067 32.465 22.504C31.3663 23.0907 30.097 23.384 28.657 23.384ZM28.657 19.384C29.2117 19.384 29.6917 19.2613 30.097 19.016C30.5023 18.7707 30.817 18.424 31.041 17.976C31.265 17.528 31.377 17.0213 31.377 16.456C31.377 15.88 31.265 15.368 31.041 14.92C30.817 14.472 30.5023 14.12 30.097 13.864C29.6917 13.608 29.2117 13.48 28.657 13.48C28.1023 13.48 27.617 13.608 27.201 13.864C26.7957 14.12 26.4757 14.472 26.241 14.92C26.017 15.368 25.905 15.88 25.905 16.456C25.905 17.0213 26.017 17.528 26.241 17.976C26.4757 18.424 26.7957 18.7707 27.201 19.016C27.617 19.2613 28.1023 19.384 28.657 19.384ZM60.9803 1.88V23H56.2123V10.568L56.4203 7.032L55.6042 11.08L52.0523 21.304H47.3643L43.8283 11.08L43.0283 7.032L43.2363 10.568V23H38.4523V1.88H45.1723L49.4283 15.976L49.7163 17.656L50.0043 15.976L54.2603 1.88H60.9803ZM64.9728 23V9.864H69.8368V23H64.9728ZM67.4688 7.16C66.7008 7.16 66.0501 6.89333 65.5168 6.36C64.9834 5.816 64.7168 5.17067 64.7168 4.424C64.7168 3.67733 64.9834 3.032 65.5168 2.488C66.0608 1.93333 66.7114 1.656 67.4688 1.656C67.9701 1.656 68.4288 1.784 68.8448 2.04C69.2608 2.28533 69.5968 2.616 69.8528 3.032C70.1088 3.448 70.2368 3.912 70.2368 4.424C70.2368 5.17067 69.9648 5.816 69.4208 6.36C68.8768 6.89333 68.2261 7.16 67.4688 7.16ZM82.2278 9.48C83.1451 9.48 84.0411 9.66667 84.9158 10.04C85.7904 10.4133 86.5104 11.0053 87.0758 11.816C87.6411 12.616 87.9237 13.672 87.9237 14.984V23H83.0438V15.784C83.0438 14.8453 82.8198 14.1413 82.3718 13.672C81.9238 13.192 81.3371 12.952 80.6118 12.952C80.1318 12.952 79.6784 13.08 79.2518 13.336C78.8358 13.5813 78.4944 13.9333 78.2278 14.392C77.9718 14.84 77.8438 15.3573 77.8438 15.944V23H72.9798V9.864H77.8438V11.8C77.9718 11.448 78.2384 11.096 78.6438 10.744C79.0598 10.3813 79.5771 10.0827 80.1958 9.848C80.8251 9.60267 81.5024 9.48 82.2278 9.48ZM96.3823 23.384C95.1129 23.384 94.0089 23.0747 93.0703 22.456C92.1316 21.8267 91.4009 20.9893 90.8783 19.944C90.3663 18.888 90.1103 17.72 90.1103 16.44C90.1103 15.16 90.3663 13.9973 90.8783 12.952C91.4009 11.896 92.1316 11.0533 93.0703 10.424C94.0089 9.79467 95.1129 9.48 96.3823 9.48C97.2249 9.48 97.9716 9.61333 98.6223 9.88C99.2729 10.136 99.8009 10.4453 100.206 10.808C100.612 11.16 100.857 11.4853 100.942 11.784V0.983999H105.806V23H100.99V20.872C100.788 21.2667 100.457 21.6613 99.9983 22.056C99.5396 22.44 99.0009 22.7547 98.3823 23C97.7636 23.256 97.0969 23.384 96.3823 23.384ZM97.8703 19.56C98.4569 19.56 98.9796 19.4267 99.4383 19.16C99.9076 18.8933 100.276 18.5253 100.542 18.056C100.809 17.576 100.942 17.0373 100.942 16.44C100.942 15.8427 100.809 15.3093 100.542 14.84C100.276 14.36 99.9076 13.9867 99.4383 13.72C98.9796 13.4427 98.4569 13.304 97.8703 13.304C97.3049 13.304 96.7929 13.4427 96.3343 13.72C95.8863 13.9867 95.5289 14.36 95.2623 14.84C95.0063 15.3093 94.8783 15.8427 94.8783 16.44C94.8783 17.0373 95.0063 17.576 95.2623 18.056C95.5289 18.5253 95.8863 18.8933 96.3343 19.16C96.7929 19.4267 97.3049 19.56 97.8703 19.56Z" fill="white"/>
<path d="M114.5 13.0001C115 9.00012 123.4 4.70011 135 9.50011C146.6 14.3001 144.9 12.3001 156.5 7.50011" stroke="white" stroke-width="3" stroke-linecap="round"/>
<path d="M114 21.621C114.5 17.621 122.9 13.321 134.5 18.121C146.1 22.921 144.4 20.921 156 16.121" stroke="white" stroke-width="3" stroke-linecap="round"/>
<path d="M0.88 36.44H6.384V37.68H2.24V41.088H6.104V42.32H2.24V47H0.88V36.44ZM10.755 47.192C10.0777 47.192 9.475 47.04 8.947 46.736C8.42433 46.432 8.01367 46.0213 7.715 45.504C7.41633 44.9813 7.267 44.392 7.267 43.736C7.267 43.08 7.41633 42.488 7.715 41.96C8.01367 41.432 8.42433 41.0133 8.947 40.704C9.475 40.3947 10.0777 40.24 10.755 40.24C11.427 40.24 12.0217 40.3947 12.539 40.704C13.0617 41.0133 13.4697 41.432 13.763 41.96C14.0563 42.488 14.203 43.08 14.203 43.736C14.203 44.392 14.0563 44.9813 13.763 45.504C13.4697 46.0213 13.0617 46.432 12.539 46.736C12.0217 47.04 11.427 47.192 10.755 47.192ZM10.755 46C11.1817 46 11.5523 45.9013 11.867 45.704C12.187 45.5067 12.435 45.2373 12.611 44.896C12.787 44.5493 12.875 44.16 12.875 43.728C12.875 43.296 12.787 42.9067 12.611 42.56C12.435 42.2133 12.187 41.9387 11.867 41.736C11.5523 41.5333 11.1817 41.432 10.755 41.432C10.323 41.432 9.947 41.5333 9.627 41.736C9.307 41.9387 9.05633 42.2133 8.875 42.56C8.699 42.9067 8.611 43.296 8.611 43.728C8.611 44.16 8.699 44.5493 8.875 44.896C9.05633 45.2373 9.307 45.5067 9.627 45.704C9.947 45.9013 10.323 46 10.755 46ZM17.1143 47H15.7303V40.432H17.1143V41.568H17.0743C17.1009 41.4293 17.1996 41.256 17.3703 41.048C17.5409 40.84 17.7756 40.6533 18.0743 40.488C18.3729 40.3227 18.7303 40.24 19.1463 40.24C19.4503 40.24 19.7169 40.2827 19.9463 40.368C20.1809 40.448 20.3463 40.528 20.4423 40.608L19.8743 41.76C19.7996 41.6853 19.6689 41.6107 19.4823 41.536C19.2956 41.456 19.0636 41.416 18.7863 41.416C18.4343 41.416 18.1329 41.5253 17.8823 41.744C17.6316 41.9627 17.4396 42.2267 17.3063 42.536C17.1783 42.84 17.1143 43.1227 17.1143 43.384V47ZM20.8738 40.432H22.1618V37.736H23.5458V40.432H25.2338V41.624H23.5458V44.872C23.5458 45.256 23.6124 45.5387 23.7458 45.72C23.8844 45.9013 24.0684 45.992 24.2978 45.992C24.5004 45.992 24.6578 45.9547 24.7698 45.88C24.8818 45.8053 24.9484 45.7547 24.9698 45.728L25.5218 46.752C25.4898 46.7787 25.4044 46.8293 25.2658 46.904C25.1271 46.9787 24.9484 47.0453 24.7298 47.104C24.5111 47.1627 24.2551 47.192 23.9618 47.192C23.4498 47.192 23.0204 47.0373 22.6738 46.728C22.3324 46.4133 22.1618 45.9173 22.1618 45.24V41.624H20.8738V40.432ZM32.0106 47V45.72C31.968 45.8533 31.8426 46.0373 31.6346 46.272C31.432 46.5067 31.152 46.72 30.7946 46.912C30.4426 47.0987 30.0266 47.192 29.5466 47.192C28.9386 47.192 28.3866 47.048 27.8906 46.76C27.4 46.472 27.008 46.0693 26.7146 45.552C26.4266 45.0293 26.2826 44.4187 26.2826 43.72C26.2826 43.0213 26.4266 42.4133 26.7146 41.896C27.008 41.3733 27.4 40.968 27.8906 40.68C28.3866 40.3867 28.9386 40.24 29.5466 40.24C30.0213 40.24 30.432 40.3253 30.7786 40.496C31.1306 40.6667 31.4106 40.864 31.6186 41.088C31.832 41.312 31.9573 41.504 31.9946 41.664V40.432H33.3706V47H32.0106ZM27.6586 43.72C27.6586 44.1947 27.7626 44.6053 27.9706 44.952C28.1786 45.2987 28.448 45.568 28.7786 45.76C29.1146 45.9467 29.472 46.04 29.8506 46.04C30.256 46.04 30.6186 45.944 30.9386 45.752C31.2586 45.56 31.512 45.2907 31.6986 44.944C31.8853 44.592 31.9786 44.184 31.9786 43.72C31.9786 43.256 31.8853 42.8507 31.6986 42.504C31.512 42.152 31.2586 41.88 30.9386 41.688C30.6186 41.4907 30.256 41.392 29.8506 41.392C29.472 41.392 29.1146 41.488 28.7786 41.68C28.448 41.872 28.1786 42.1413 27.9706 42.488C27.7626 42.8347 27.6586 43.2453 27.6586 43.72ZM36.6786 47H35.2786V35.992H36.6786V47ZM39.5558 44C39.5611 44.3947 39.6464 44.7547 39.8118 45.08C39.9771 45.4053 40.2224 45.664 40.5478 45.856C40.8784 46.048 41.2838 46.144 41.7638 46.144C42.1691 46.144 42.5131 46.0853 42.7958 45.968C43.0838 45.8453 43.3184 45.7013 43.4998 45.536C43.6811 45.3653 43.8118 45.2133 43.8918 45.08L44.5718 45.92C44.3958 46.176 44.1798 46.4 43.9238 46.592C43.6731 46.784 43.3664 46.9307 43.0038 47.032C42.6411 47.1387 42.1984 47.192 41.6758 47.192C40.9718 47.192 40.3611 47.0427 39.8438 46.744C39.3318 46.44 38.9371 46.0213 38.6598 45.488C38.3824 44.9493 38.2438 44.3333 38.2438 43.64C38.2438 43 38.3744 42.424 38.6358 41.912C38.8971 41.3947 39.2758 40.9867 39.7718 40.688C40.2731 40.3893 40.8758 40.24 41.5798 40.24C42.2251 40.24 42.7851 40.376 43.2598 40.648C43.7398 40.9147 44.1104 41.2933 44.3718 41.784C44.6384 42.2747 44.7718 42.8613 44.7718 43.544C44.7718 43.5867 44.7691 43.664 44.7638 43.776C44.7584 43.8827 44.7531 43.9573 44.7478 44H39.5558ZM43.4438 42.952C43.4384 42.7333 43.3744 42.4933 43.2518 42.232C43.1344 41.9707 42.9424 41.7467 42.6758 41.56C42.4091 41.3733 42.0491 41.28 41.5958 41.28C41.1264 41.28 40.7478 41.3707 40.4598 41.552C40.1771 41.7333 39.9691 41.9547 39.8358 42.216C39.7024 42.472 39.6251 42.7173 39.6038 42.952H43.4438ZM46.0528 40.432H51.7808L47.8528 45.944H51.6208V47H45.6048L49.5328 41.48H46.0528V40.432ZM58.3231 47V45.72C58.2805 45.8533 58.1551 46.0373 57.9471 46.272C57.7445 46.5067 57.4645 46.72 57.1071 46.912C56.7551 47.0987 56.3391 47.192 55.8591 47.192C55.2511 47.192 54.6991 47.048 54.2031 46.76C53.7125 46.472 53.3205 46.0693 53.0271 45.552C52.7391 45.0293 52.5951 44.4187 52.5951 43.72C52.5951 43.0213 52.7391 42.4133 53.0271 41.896C53.3205 41.3733 53.7125 40.968 54.2031 40.68C54.6991 40.3867 55.2511 40.24 55.8591 40.24C56.3338 40.24 56.7445 40.3253 57.0911 40.496C57.4431 40.6667 57.7231 40.864 57.9311 41.088C58.1445 41.312 58.2698 41.504 58.3071 41.664V40.432H59.6831V47H58.3231ZM53.9711 43.72C53.9711 44.1947 54.0751 44.6053 54.2831 44.952C54.4911 45.2987 54.7605 45.568 55.0911 45.76C55.4271 45.9467 55.7845 46.04 56.1631 46.04C56.5685 46.04 56.9311 45.944 57.2511 45.752C57.5711 45.56 57.8245 45.2907 58.0111 44.944C58.1978 44.592 58.2911 44.184 58.2911 43.72C58.2911 43.256 58.1978 42.8507 58.0111 42.504C57.8245 42.152 57.5711 41.88 57.2511 41.688C56.9311 41.4907 56.5685 41.392 56.1631 41.392C55.7845 41.392 55.4271 41.488 55.0911 41.68C54.7605 41.872 54.4911 42.1413 54.2831 42.488C54.0751 42.8347 53.9711 43.2453 53.9711 43.72ZM62.7751 44.992C63.1005 44.992 63.3778 45.1067 63.6071 45.336C63.8418 45.5653 63.9591 45.8747 63.9591 46.264C63.9591 46.6587 63.8791 47.0347 63.7191 47.392C63.5591 47.7493 63.3485 48.0667 63.0871 48.344C62.8258 48.6213 62.5431 48.8427 62.2391 49.008L61.7191 48.472C61.8791 48.3973 62.0525 48.2907 62.2391 48.152C62.4258 48.0133 62.5938 47.8533 62.7431 47.672C62.8925 47.496 62.9938 47.3067 63.0471 47.104C62.9298 47.1627 62.7911 47.192 62.6311 47.192C62.3591 47.1867 62.1245 47.0827 61.9271 46.88C61.7298 46.672 61.6311 46.4213 61.6311 46.128C61.6311 45.9093 61.6818 45.7147 61.7831 45.544C61.8845 45.3733 62.0205 45.24 62.1911 45.144C62.3671 45.0427 62.5618 44.992 62.7751 44.992ZM69.9894 36.44H72.9254C73.5014 36.44 74.0427 36.5173 74.5494 36.672C75.056 36.8267 75.4667 37.088 75.7814 37.456C76.096 37.824 76.2534 38.336 76.2534 38.992C76.2534 39.4347 76.1654 39.8373 75.9894 40.2C75.8187 40.5573 75.6054 40.848 75.3494 41.072C75.0934 41.296 74.84 41.4293 74.5894 41.472C74.792 41.488 75.016 41.552 75.2614 41.664C75.512 41.776 75.7494 41.936 75.9734 42.144C76.2027 42.352 76.3894 42.6133 76.5334 42.928C76.6827 43.2373 76.7574 43.6053 76.7574 44.032C76.7574 44.608 76.64 45.12 76.4054 45.568C76.1707 46.016 75.8134 46.368 75.3334 46.624C74.8587 46.8747 74.256 47 73.5254 47H69.9894V36.44ZM71.3494 45.856H73.3894C73.896 45.856 74.288 45.768 74.5654 45.592C74.848 45.4107 75.0454 45.176 75.1574 44.888C75.2747 44.6 75.3334 44.2933 75.3334 43.968C75.3334 43.4293 75.1574 42.9947 74.8054 42.664C74.4534 42.3333 73.944 42.168 73.2774 42.168H71.3494V45.856ZM71.3494 41.048H73.1174C73.5227 41.048 73.856 40.96 74.1174 40.784C74.3787 40.6027 74.5734 40.3733 74.7014 40.096C74.8294 39.8133 74.8934 39.5227 74.8934 39.224C74.8934 38.6107 74.712 38.184 74.3494 37.944C73.992 37.704 73.512 37.584 72.9094 37.584H71.3494V41.048ZM79.833 47H78.449V40.432H79.833V41.568H79.793C79.8197 41.4293 79.9183 41.256 80.089 41.048C80.2597 40.84 80.4943 40.6533 80.793 40.488C81.0917 40.3227 81.449 40.24 81.865 40.24C82.169 40.24 82.4357 40.2827 82.665 40.368C82.8997 40.448 83.065 40.528 83.161 40.608L82.593 41.76C82.5183 41.6853 82.3877 41.6107 82.201 41.536C82.0143 41.456 81.7823 41.416 81.505 41.416C81.153 41.416 80.8517 41.5253 80.601 41.744C80.3503 41.9627 80.1583 42.2267 80.025 42.536C79.897 42.84 79.833 43.1227 79.833 43.384V47ZM89.1981 47V45.72C89.1555 45.8533 89.0301 46.0373 88.8221 46.272C88.6195 46.5067 88.3395 46.72 87.9821 46.912C87.6301 47.0987 87.2141 47.192 86.7341 47.192C86.1261 47.192 85.5741 47.048 85.0781 46.76C84.5875 46.472 84.1955 46.0693 83.9021 45.552C83.6141 45.0293 83.4701 44.4187 83.4701 43.72C83.4701 43.0213 83.6141 42.4133 83.9021 41.896C84.1955 41.3733 84.5875 40.968 85.0781 40.68C85.5741 40.3867 86.1261 40.24 86.7341 40.24C87.2088 40.24 87.6195 40.3253 87.9661 40.496C88.3181 40.6667 88.5981 40.864 88.8061 41.088C89.0195 41.312 89.1448 41.504 89.1821 41.664V40.432H90.5581V47H89.1981ZM84.8461 43.72C84.8461 44.1947 84.9501 44.6053 85.1581 44.952C85.3661 45.2987 85.6355 45.568 85.9661 45.76C86.3021 45.9467 86.6595 46.04 87.0381 46.04C87.4435 46.04 87.8061 45.944 88.1261 45.752C88.4461 45.56 88.6995 45.2907 88.8861 44.944C89.0728 44.592 89.1661 44.184 89.1661 43.72C89.1661 43.256 89.0728 42.8507 88.8861 42.504C88.6995 42.152 88.4461 41.88 88.1261 41.688C87.8061 41.4907 87.4435 41.392 87.0381 41.392C86.6595 41.392 86.3021 41.488 85.9661 41.68C85.6355 41.872 85.3661 42.1413 85.1581 42.488C84.9501 42.8347 84.8461 43.2453 84.8461 43.72ZM94.8821 40.24C95.2235 40.24 95.5408 40.2747 95.8341 40.344C96.1328 40.4133 96.3888 40.496 96.6021 40.592C96.8208 40.688 96.9755 40.7733 97.0661 40.848L96.5141 41.728C96.4075 41.632 96.2155 41.5253 95.9381 41.408C95.6608 41.2853 95.3515 41.224 95.0101 41.224C94.6368 41.224 94.3195 41.2987 94.0581 41.448C93.7968 41.592 93.6661 41.8027 93.6661 42.08C93.6661 42.3573 93.7995 42.5787 94.0661 42.744C94.3381 42.904 94.7008 43.0373 95.1541 43.144C95.5168 43.2293 95.8555 43.344 96.1701 43.488C96.4901 43.632 96.7488 43.832 96.9461 44.088C97.1435 44.3387 97.2421 44.6747 97.2421 45.096C97.2421 45.48 97.1621 45.808 97.0021 46.08C96.8421 46.3467 96.6261 46.5627 96.3541 46.728C96.0821 46.888 95.7781 47.0053 95.4421 47.08C95.1061 47.1547 94.7648 47.192 94.4181 47.192C94.0128 47.192 93.6475 47.1493 93.3221 47.064C92.9968 46.984 92.7221 46.888 92.4981 46.776C92.2795 46.6587 92.1195 46.5573 92.0181 46.472L92.5701 45.48C92.7088 45.6133 92.9355 45.7547 93.2501 45.904C93.5701 46.0533 93.9328 46.128 94.3381 46.128C94.7861 46.128 95.1488 46.0347 95.4261 45.848C95.7035 45.656 95.8421 45.408 95.8421 45.104C95.8421 44.8747 95.7755 44.6907 95.6421 44.552C95.5088 44.4133 95.3301 44.3013 95.1061 44.216C94.8821 44.1307 94.6368 44.056 94.3701 43.992C94.1141 43.9333 93.8635 43.856 93.6181 43.76C93.3781 43.664 93.1568 43.5413 92.9541 43.392C92.7568 43.2373 92.5995 43.0507 92.4821 42.832C92.3648 42.608 92.3061 42.3467 92.3061 42.048C92.3061 41.6693 92.4261 41.3467 92.6661 41.08C92.9061 40.808 93.2208 40.6 93.6101 40.456C93.9995 40.312 94.4235 40.24 94.8821 40.24ZM99.0076 47V40.432H100.4V47H99.0076ZM99.7196 38.184C99.469 38.184 99.253 38.096 99.0716 37.92C98.8956 37.7387 98.8076 37.5227 98.8076 37.272C98.8076 37.0213 98.8956 36.8053 99.0716 36.624C99.253 36.4427 99.469 36.352 99.7196 36.352C99.885 36.352 100.037 36.3947 100.176 36.48C100.32 36.5653 100.434 36.6773 100.52 36.816C100.605 36.9493 100.648 37.1013 100.648 37.272C100.648 37.5227 100.557 37.7387 100.376 37.92C100.194 38.096 99.9756 38.184 99.7196 38.184ZM103.976 47H102.576V35.992H103.976V47ZM107.469 47.192C107.175 47.192 106.922 47.088 106.709 46.88C106.501 46.6667 106.397 46.4133 106.397 46.12C106.397 45.816 106.501 45.56 106.709 45.352C106.922 45.1387 107.175 45.032 107.469 45.032C107.773 45.032 108.029 45.1387 108.237 45.352C108.445 45.56 108.549 45.816 108.549 46.12C108.549 46.4133 108.445 46.6667 108.237 46.88C108.029 47.088 107.773 47.192 107.469 47.192Z" fill="white"/>
</svg>
