<svg width="165" height="30" viewBox="0 0 165 30" fill="none" xmlns="http://www.w3.org/2000/svg">
<path d="M12.512 18.648C13.4933 18.648 14.384 18.504 15.184 18.216C15.9947 17.928 16.5973 17.6453 16.992 17.368L19.04 21.432C18.5387 21.8587 17.68 22.2907 16.464 22.728C15.2587 23.1653 13.824 23.384 12.16 23.384C10.6027 23.384 9.14133 23.112 7.776 22.568C6.41067 22.024 5.20533 21.2613 4.16 20.28C3.12533 19.288 2.30933 18.1307 1.712 16.808C1.12533 15.4747 0.832 14.0293 0.832 12.472C0.832 10.9147 1.12533 9.46933 1.712 8.136C2.29867 6.792 3.10933 5.624 4.144 4.632C5.18933 3.64 6.39467 2.872 7.76 2.328C9.136 1.77333 10.6027 1.496 12.16 1.496C13.824 1.496 15.2587 1.71467 16.464 2.152C17.68 2.58933 18.5387 3.02133 19.04 3.448L16.992 7.512C16.5973 7.224 15.9947 6.94133 15.184 6.664C14.384 6.376 13.4933 6.232 12.512 6.232C11.424 6.232 10.4747 6.40267 9.664 6.744C8.85333 7.07467 8.176 7.53333 7.632 8.12C7.088 8.70667 6.68267 9.368 6.416 10.104C6.14933 10.84 6.016 11.6133 6.016 12.424C6.016 13.2453 6.14933 14.0293 6.416 14.776C6.68267 15.512 7.088 16.1733 7.632 16.76C8.176 17.3467 8.85333 17.8107 9.664 18.152C10.4747 18.4827 11.424 18.648 12.512 18.648ZM28.657 23.384C27.217 23.384 25.937 23.0907 24.817 22.504C23.7077 21.9067 22.833 21.0907 22.193 20.056C21.5637 19.0107 21.249 17.816 21.249 16.472C21.249 15.128 21.5637 13.9333 22.193 12.888C22.833 11.832 23.7077 11 24.817 10.392C25.937 9.784 27.217 9.48 28.657 9.48C30.097 9.48 31.3663 9.784 32.465 10.392C33.5637 11 34.4223 11.832 35.041 12.888C35.6597 13.9333 35.969 15.128 35.969 16.472C35.969 17.816 35.6597 19.0107 35.041 20.056C34.4223 21.0907 33.5637 21.9067 32.465 22.504C31.3663 23.0907 30.097 23.384 28.657 23.384ZM28.657 19.384C29.2117 19.384 29.6917 19.2613 30.097 19.016C30.5023 18.7707 30.817 18.424 31.041 17.976C31.265 17.528 31.377 17.0213 31.377 16.456C31.377 15.88 31.265 15.368 31.041 14.92C30.817 14.472 30.5023 14.12 30.097 13.864C29.6917 13.608 29.2117 13.48 28.657 13.48C28.1023 13.48 27.617 13.608 27.201 13.864C26.7957 14.12 26.4757 14.472 26.241 14.92C26.017 15.368 25.905 15.88 25.905 16.456C25.905 17.0213 26.017 17.528 26.241 17.976C26.4757 18.424 26.7957 18.7707 27.201 19.016C27.617 19.2613 28.1023 19.384 28.657 19.384ZM60.9803 1.88V23H56.2123V10.568L56.4203 7.032L55.6042 11.08L52.0523 21.304H47.3643L43.8283 11.08L43.0283 7.032L43.2363 10.568V23H38.4523V1.88H45.1723L49.4283 15.976L49.7163 17.656L50.0043 15.976L54.2603 1.88H60.9803ZM64.9728 23V9.864H69.8368V23H64.9728ZM67.4688 7.16C66.7008 7.16 66.0501 6.89333 65.5168 6.36C64.9834 5.816 64.7168 5.17067 64.7168 4.424C64.7168 3.67733 64.9834 3.032 65.5168 2.488C66.0608 1.93333 66.7114 1.656 67.4688 1.656C67.9701 1.656 68.4288 1.784 68.8448 2.04C69.2608 2.28533 69.5968 2.616 69.8528 3.032C70.1088 3.448 70.2368 3.912 70.2368 4.424C70.2368 5.17067 69.9648 5.816 69.4208 6.36C68.8768 6.89333 68.2261 7.16 67.4688 7.16ZM82.2278 9.48C83.1451 9.48 84.0411 9.66667 84.9158 10.04C85.7904 10.4133 86.5104 11.0053 87.0758 11.816C87.6411 12.616 87.9237 13.672 87.9237 14.984V23H83.0438V15.784C83.0438 14.8453 82.8198 14.1413 82.3718 13.672C81.9238 13.192 81.3371 12.952 80.6118 12.952C80.1318 12.952 79.6784 13.08 79.2518 13.336C78.8358 13.5813 78.4944 13.9333 78.2278 14.392C77.9718 14.84 77.8438 15.3573 77.8438 15.944V23H72.9798V9.864H77.8438V11.8C77.9718 11.448 78.2384 11.096 78.6438 10.744C79.0598 10.3813 79.5771 10.0827 80.1958 9.848C80.8251 9.60267 81.5024 9.48 82.2278 9.48ZM96.3823 23.384C95.1129 23.384 94.0089 23.0747 93.0703 22.456C92.1316 21.8267 91.4009 20.9893 90.8783 19.944C90.3663 18.888 90.1103 17.72 90.1103 16.44C90.1103 15.16 90.3663 13.9973 90.8783 12.952C91.4009 11.896 92.1316 11.0533 93.0703 10.424C94.0089 9.79467 95.1129 9.48 96.3823 9.48C97.2249 9.48 97.9716 9.61333 98.6223 9.88C99.2729 10.136 99.8009 10.4453 100.206 10.808C100.612 11.16 100.857 11.4853 100.942 11.784V0.983999H105.806V23H100.99V20.872C100.788 21.2667 100.457 21.6613 99.9983 22.056C99.5396 22.44 99.0009 22.7547 98.3823 23C97.7636 23.256 97.0969 23.384 96.3823 23.384ZM97.8703 19.56C98.4569 19.56 98.9796 19.4267 99.4383 19.16C99.9076 18.8933 100.276 18.5253 100.542 18.056C100.809 17.576 100.942 17.0373 100.942 16.44C100.942 15.8427 100.809 15.3093 100.542 14.84C100.276 14.36 99.9076 13.9867 99.4383 13.72C98.9796 13.4427 98.4569 13.304 97.8703 13.304C97.3049 13.304 96.7929 13.4427 96.3343 13.72C95.8863 13.9867 95.5289 14.36 95.2623 14.84C95.0063 15.3093 94.8783 15.8427 94.8783 16.44C94.8783 17.0373 95.0063 17.576 95.2623 18.056C95.5289 18.5253 95.8863 18.8933 96.3343 19.16C96.7929 19.4267 97.3049 19.56 97.8703 19.56Z" fill="#0C0C0C"/>
<path d="M114.5 13C115 9 123.4 4.7 135 9.5C146.6 14.3 144.9 12.3 156.5 7.5" stroke="#0C0C0C" stroke-width="3" stroke-linecap="round"/>
<path d="M114 21.621C114.5 17.621 122.9 13.321 134.5 18.121C146.1 22.921 144.4 20.921 156 16.121" stroke="#0C0C0C" stroke-width="3" stroke-linecap="round"/>
</svg>
